<svg xmlns="http://www.w3.org/2000/svg" viewBox="0 0 512 512" width="512" height="512">
  <!-- FrameForge icon: storyboard frame containing an anvil, blue forge-spark accent -->
  <!-- frame (16:9 storyboard card) -->
  <rect x="48" y="92" width="416" height="328" rx="42"
        fill="#FFFFFF" stroke="#000000" stroke-width="32" stroke-linejoin="round"/>
  <!-- anvil: horn + top block -->
  <path d="M 200 218
           H 366
           Q 380 218 380 232
           V 258
           Q 380 272 366 272
           L 296 272
           L 306 310
           H 254
           L 264 272
           L 214 268
           C 165 264 130 246 122 232
           Q 118 222 132 220
           Z"
        fill="#000000" stroke="#000000" stroke-width="18" stroke-linejoin="round"/>
  <!-- anvil base -->
  <path d="M 216 310 H 344 Q 360 310 360 326 V 340 Q 360 356 344 356 H 216 Q 200 356 200 340 V 326 Q 200 310 216 310 Z"
        fill="#000000" stroke="#000000" stroke-width="18" stroke-linejoin="round"/>
  <!-- blue forge spark (4-point) above the horn -->
  <path d="M 172 128
           L 185 162
           L 219 175
           L 185 188
           L 172 222
           L 159 188
           L 125 175
           L 159 162
           Z"
        fill="#009FE0" stroke="#000000" stroke-width="16" stroke-linejoin="round"/>
</svg>
